<mxfile host="Electron" modified="2023-10-04T12:34:00.247Z" agent="Mozilla/5.0 (Windows NT 10.0; Win64; x64) AppleWebKit/537.36 (KHTML, like Gecko) draw.io/21.7.5 Chrome/114.0.5735.289 Electron/25.8.1 Safari/537.36" etag="1EGRMlrS1gKZ-Gu8Oodv" version="21.7.5" type="device">
  <diagram id="C5RBs43oDa-KdzZeNtuy" name="Page-1">
    <mxGraphModel dx="1168" dy="670" grid="0" gridSize="10" guides="1" tooltips="1" connect="1" arrows="1" fold="1" page="1" pageScale="1" pageWidth="827" pageHeight="1169" math="0" shadow="0">
      <root>
        <mxCell id="WIyWlLk6GJQsqaUBKTNV-0" />
        <mxCell id="WIyWlLk6GJQsqaUBKTNV-1" parent="WIyWlLk6GJQsqaUBKTNV-0" />
        <mxCell id="eoc-LEapJYtR0BgHipC6-8" value="&lt;font color=&quot;#464f55&quot;&gt;&lt;b&gt;Shapes&lt;/b&gt;&lt;/font&gt;" style="html=1;whiteSpace=wrap;rounded=1;strokeColor=#464F55;" vertex="1" parent="WIyWlLk6GJQsqaUBKTNV-1">
          <mxGeometry x="173" y="65" width="81" height="32" as="geometry" />
        </mxCell>
        <mxCell id="eoc-LEapJYtR0BgHipC6-9" value="&lt;font color=&quot;#464f55&quot;&gt;&lt;b&gt;Colors&lt;/b&gt;&lt;/font&gt;" style="html=1;whiteSpace=wrap;rounded=1;strokeColor=#464F55;" vertex="1" parent="WIyWlLk6GJQsqaUBKTNV-1">
          <mxGeometry x="373" y="65" width="81" height="32" as="geometry" />
        </mxCell>
        <mxCell id="eoc-LEapJYtR0BgHipC6-14" value="" style="shape=cross;whiteSpace=wrap;html=1;strokeColor=#464F55;" vertex="1" parent="WIyWlLk6GJQsqaUBKTNV-1">
          <mxGeometry x="303" y="68" width="26" height="26" as="geometry" />
        </mxCell>
        <mxCell id="eoc-LEapJYtR0BgHipC6-17" value="" style="rounded=1;whiteSpace=wrap;html=1;rotation=-25;comic=1;fillColor=#0050ef;fontColor=#ffffff;strokeColor=#001DBC;gradientColor=#FFFFFF;" vertex="1" parent="WIyWlLk6GJQsqaUBKTNV-1">
          <mxGeometry x="424.08000000000004" y="120.49000000000001" width="65.73" height="21.7" as="geometry" />
        </mxCell>
        <mxCell id="eoc-LEapJYtR0BgHipC6-31" value="" style="endArrow=none;html=1;rounded=0;endSize=6;strokeWidth=7;strokeColor=#464F55;" edge="1" parent="WIyWlLk6GJQsqaUBKTNV-1">
          <mxGeometry width="50" height="50" relative="1" as="geometry">
            <mxPoint x="466" y="153" as="sourcePoint" />
            <mxPoint x="481" y="187" as="targetPoint" />
          </mxGeometry>
        </mxCell>
        <mxCell id="eoc-LEapJYtR0BgHipC6-32" value="" style="endArrow=none;html=1;rounded=0;strokeWidth=2;targetPerimeterSpacing=0;strokeColor=#464F55;" edge="1" parent="WIyWlLk6GJQsqaUBKTNV-1">
          <mxGeometry width="50" height="50" relative="1" as="geometry">
            <mxPoint x="466" y="155" as="sourcePoint" />
            <mxPoint x="496" y="130" as="targetPoint" />
          </mxGeometry>
        </mxCell>
        <mxCell id="eoc-LEapJYtR0BgHipC6-33" value="" style="endArrow=none;html=1;rounded=0;strokeWidth=2;strokeColor=#464F55;" edge="1" parent="WIyWlLk6GJQsqaUBKTNV-1">
          <mxGeometry width="50" height="50" relative="1" as="geometry">
            <mxPoint x="496" y="131" as="sourcePoint" />
            <mxPoint x="489" y="116" as="targetPoint" />
          </mxGeometry>
        </mxCell>
        <mxCell id="eoc-LEapJYtR0BgHipC6-34" value="" style="endArrow=none;html=1;rounded=0;exitX=1;exitY=0.5;exitDx=0;exitDy=0;strokeWidth=2;strokeColor=#464F55;" edge="1" parent="WIyWlLk6GJQsqaUBKTNV-1" source="eoc-LEapJYtR0BgHipC6-17">
          <mxGeometry width="50" height="50" relative="1" as="geometry">
            <mxPoint x="448" y="163" as="sourcePoint" />
            <mxPoint x="490" y="116" as="targetPoint" />
          </mxGeometry>
        </mxCell>
        <mxCell id="eoc-LEapJYtR0BgHipC6-35" value="" style="rounded=1;whiteSpace=wrap;html=1;rotation=-25;comic=1;fillColor=#e51400;fontColor=#ffffff;strokeColor=#B20000;gradientColor=#FFFFFF;" vertex="1" parent="WIyWlLk6GJQsqaUBKTNV-1">
          <mxGeometry x="346" y="129.49" width="65.73" height="21.7" as="geometry" />
        </mxCell>
        <mxCell id="eoc-LEapJYtR0BgHipC6-36" value="" style="endArrow=none;html=1;rounded=0;endSize=6;strokeWidth=7;comic=0;strokeColor=#464F55;" edge="1" parent="WIyWlLk6GJQsqaUBKTNV-1">
          <mxGeometry width="50" height="50" relative="1" as="geometry">
            <mxPoint x="387.91999999999996" y="162" as="sourcePoint" />
            <mxPoint x="402.91999999999996" y="196" as="targetPoint" />
          </mxGeometry>
        </mxCell>
        <mxCell id="eoc-LEapJYtR0BgHipC6-37" value="" style="endArrow=none;html=1;rounded=0;strokeWidth=2;targetPerimeterSpacing=0;comic=0;strokeColor=#464F55;" edge="1" parent="WIyWlLk6GJQsqaUBKTNV-1">
          <mxGeometry width="50" height="50" relative="1" as="geometry">
            <mxPoint x="387.91999999999996" y="164" as="sourcePoint" />
            <mxPoint x="417.91999999999996" y="139" as="targetPoint" />
          </mxGeometry>
        </mxCell>
        <mxCell id="eoc-LEapJYtR0BgHipC6-38" value="" style="endArrow=none;html=1;rounded=0;strokeWidth=2;comic=0;strokeColor=#464F55;" edge="1" parent="WIyWlLk6GJQsqaUBKTNV-1">
          <mxGeometry width="50" height="50" relative="1" as="geometry">
            <mxPoint x="417.91999999999996" y="140" as="sourcePoint" />
            <mxPoint x="410.91999999999996" y="125" as="targetPoint" />
          </mxGeometry>
        </mxCell>
        <mxCell id="eoc-LEapJYtR0BgHipC6-39" value="" style="endArrow=none;html=1;rounded=0;exitX=1;exitY=0.5;exitDx=0;exitDy=0;strokeWidth=2;comic=0;strokeColor=#464F55;" edge="1" source="eoc-LEapJYtR0BgHipC6-35" parent="WIyWlLk6GJQsqaUBKTNV-1">
          <mxGeometry width="50" height="50" relative="1" as="geometry">
            <mxPoint x="369.91999999999996" y="172" as="sourcePoint" />
            <mxPoint x="411.91999999999996" y="125" as="targetPoint" />
          </mxGeometry>
        </mxCell>
        <mxCell id="eoc-LEapJYtR0BgHipC6-43" value="" style="ellipse;whiteSpace=wrap;html=1;aspect=fixed;fillColor=#464F55;gradientColor=#FFFFFF;strokeColor=#464F55;" vertex="1" parent="WIyWlLk6GJQsqaUBKTNV-1">
          <mxGeometry x="140" y="129.49" width="59.51" height="59.51" as="geometry" />
        </mxCell>
        <mxCell id="eoc-LEapJYtR0BgHipC6-45" value="" style="whiteSpace=wrap;html=1;aspect=fixed;fillColor=#464F55;gradientColor=#FFFFFF;strokeColor=#464F55;" vertex="1" parent="WIyWlLk6GJQsqaUBKTNV-1">
          <mxGeometry x="217.74" y="130.49" width="58.51" height="58.51" as="geometry" />
        </mxCell>
        <mxCell id="eoc-LEapJYtR0BgHipC6-47" value="Shape" style="swimlane;fontStyle=1;align=center;verticalAlign=top;childLayout=stackLayout;horizontal=1;startSize=23;horizontalStack=0;resizeParent=1;resizeParentMax=0;resizeLast=0;collapsible=1;marginBottom=0;whiteSpace=wrap;html=1;strokeColor=#464F55;fontColor=#FFFFFF;fillColor=#2C6879;rounded=1;labelBackgroundColor=none;" vertex="1" parent="WIyWlLk6GJQsqaUBKTNV-1">
          <mxGeometry x="271" y="249" width="125" height="51" as="geometry">
            <mxRectangle x="330" y="270" width="120" height="40" as="alternateBounds" />
          </mxGeometry>
        </mxCell>
        <mxCell id="eoc-LEapJYtR0BgHipC6-49" value="" style="line;strokeWidth=1;fillColor=none;align=left;verticalAlign=middle;spacingTop=-1;spacingLeft=3;spacingRight=3;rotatable=0;labelPosition=right;points=[];portConstraint=eastwest;strokeColor=#464F55;fontColor=#1A1A1A;rounded=1;labelBackgroundColor=none;" vertex="1" parent="eoc-LEapJYtR0BgHipC6-47">
          <mxGeometry y="23" width="125" height="28" as="geometry" />
        </mxCell>
        <mxCell id="eoc-LEapJYtR0BgHipC6-59" style="edgeStyle=orthogonalEdgeStyle;rounded=0;orthogonalLoop=1;jettySize=auto;html=1;entryX=0.5;entryY=1;entryDx=0;entryDy=0;exitX=0.5;exitY=0;exitDx=0;exitDy=0;endArrow=block;endFill=0;strokeColor=#464F55;" edge="1" parent="WIyWlLk6GJQsqaUBKTNV-1" source="eoc-LEapJYtR0BgHipC6-51" target="eoc-LEapJYtR0BgHipC6-47">
          <mxGeometry relative="1" as="geometry" />
        </mxCell>
        <mxCell id="eoc-LEapJYtR0BgHipC6-51" value="RedCircle" style="swimlane;fontStyle=1;align=center;verticalAlign=top;childLayout=stackLayout;horizontal=1;startSize=23;horizontalStack=0;resizeParent=1;resizeParentMax=0;resizeLast=0;collapsible=1;marginBottom=0;whiteSpace=wrap;html=1;strokeColor=#464F55;fontColor=#FFFFFF;fillColor=#2C6879;rounded=1;labelBackgroundColor=none;" vertex="1" parent="WIyWlLk6GJQsqaUBKTNV-1">
          <mxGeometry x="67.13" y="344" width="125" height="51" as="geometry">
            <mxRectangle x="330" y="270" width="120" height="40" as="alternateBounds" />
          </mxGeometry>
        </mxCell>
        <mxCell id="eoc-LEapJYtR0BgHipC6-52" value="" style="line;strokeWidth=1;fillColor=none;align=left;verticalAlign=middle;spacingTop=-1;spacingLeft=3;spacingRight=3;rotatable=0;labelPosition=right;points=[];portConstraint=eastwest;strokeColor=#464F55;fontColor=#1A1A1A;rounded=1;labelBackgroundColor=none;" vertex="1" parent="eoc-LEapJYtR0BgHipC6-51">
          <mxGeometry y="23" width="125" height="28" as="geometry" />
        </mxCell>
        <mxCell id="eoc-LEapJYtR0BgHipC6-63" style="edgeStyle=orthogonalEdgeStyle;rounded=0;orthogonalLoop=1;jettySize=auto;html=1;endArrow=none;endFill=0;strokeColor=#464F55;" edge="1" parent="WIyWlLk6GJQsqaUBKTNV-1" source="eoc-LEapJYtR0BgHipC6-53">
          <mxGeometry relative="1" as="geometry">
            <mxPoint x="266.38" y="321.97297297297297" as="targetPoint" />
          </mxGeometry>
        </mxCell>
        <mxCell id="eoc-LEapJYtR0BgHipC6-53" value="RedSquare" style="swimlane;fontStyle=1;align=center;verticalAlign=top;childLayout=stackLayout;horizontal=1;startSize=23;horizontalStack=0;resizeParent=1;resizeParentMax=0;resizeLast=0;collapsible=1;marginBottom=0;whiteSpace=wrap;html=1;strokeColor=#464F55;fontColor=#FFFFFF;fillColor=#2C6879;rounded=1;labelBackgroundColor=none;" vertex="1" parent="WIyWlLk6GJQsqaUBKTNV-1">
          <mxGeometry x="203.88" y="344" width="125" height="51" as="geometry">
            <mxRectangle x="330" y="270" width="120" height="40" as="alternateBounds" />
          </mxGeometry>
        </mxCell>
        <mxCell id="eoc-LEapJYtR0BgHipC6-54" value="" style="line;strokeWidth=1;fillColor=none;align=left;verticalAlign=middle;spacingTop=-1;spacingLeft=3;spacingRight=3;rotatable=0;labelPosition=right;points=[];portConstraint=eastwest;strokeColor=#464F55;fontColor=#1A1A1A;rounded=1;labelBackgroundColor=none;" vertex="1" parent="eoc-LEapJYtR0BgHipC6-53">
          <mxGeometry y="23" width="125" height="28" as="geometry" />
        </mxCell>
        <mxCell id="eoc-LEapJYtR0BgHipC6-62" style="edgeStyle=orthogonalEdgeStyle;rounded=0;orthogonalLoop=1;jettySize=auto;html=1;endArrow=none;endFill=0;strokeColor=#464F55;" edge="1" parent="WIyWlLk6GJQsqaUBKTNV-1" source="eoc-LEapJYtR0BgHipC6-55">
          <mxGeometry relative="1" as="geometry">
            <mxPoint x="402" y="322" as="targetPoint" />
            <Array as="points">
              <mxPoint x="402" y="322" />
            </Array>
          </mxGeometry>
        </mxCell>
        <mxCell id="eoc-LEapJYtR0BgHipC6-55" value="BlueCircle" style="swimlane;fontStyle=1;align=center;verticalAlign=top;childLayout=stackLayout;horizontal=1;startSize=23;horizontalStack=0;resizeParent=1;resizeParentMax=0;resizeLast=0;collapsible=1;marginBottom=0;whiteSpace=wrap;html=1;strokeColor=#464F55;fontColor=#FFFFFF;fillColor=#2C6879;rounded=1;labelBackgroundColor=none;" vertex="1" parent="WIyWlLk6GJQsqaUBKTNV-1">
          <mxGeometry x="339.88" y="344" width="125" height="51" as="geometry">
            <mxRectangle x="330" y="270" width="120" height="40" as="alternateBounds" />
          </mxGeometry>
        </mxCell>
        <mxCell id="eoc-LEapJYtR0BgHipC6-56" value="" style="line;strokeWidth=1;fillColor=none;align=left;verticalAlign=middle;spacingTop=-1;spacingLeft=3;spacingRight=3;rotatable=0;labelPosition=right;points=[];portConstraint=eastwest;strokeColor=#464F55;fontColor=#1A1A1A;rounded=1;labelBackgroundColor=none;" vertex="1" parent="eoc-LEapJYtR0BgHipC6-55">
          <mxGeometry y="23" width="125" height="28" as="geometry" />
        </mxCell>
        <mxCell id="eoc-LEapJYtR0BgHipC6-60" style="edgeStyle=orthogonalEdgeStyle;rounded=0;orthogonalLoop=1;jettySize=auto;html=1;exitX=0.5;exitY=0;exitDx=0;exitDy=0;endArrow=none;endFill=0;strokeColor=#464F55;" edge="1" parent="WIyWlLk6GJQsqaUBKTNV-1" source="eoc-LEapJYtR0BgHipC6-57">
          <mxGeometry relative="1" as="geometry">
            <mxPoint x="334" y="322" as="targetPoint" />
            <Array as="points">
              <mxPoint x="537" y="322" />
            </Array>
          </mxGeometry>
        </mxCell>
        <mxCell id="eoc-LEapJYtR0BgHipC6-57" value="BlueSquare" style="swimlane;fontStyle=1;align=center;verticalAlign=top;childLayout=stackLayout;horizontal=1;startSize=23;horizontalStack=0;resizeParent=1;resizeParentMax=0;resizeLast=0;collapsible=1;marginBottom=0;whiteSpace=wrap;html=1;strokeColor=#464F55;fontColor=#FFFFFF;fillColor=#2C6879;rounded=1;labelBackgroundColor=none;" vertex="1" parent="WIyWlLk6GJQsqaUBKTNV-1">
          <mxGeometry x="474.88" y="344" width="125" height="51" as="geometry">
            <mxRectangle x="330" y="270" width="120" height="40" as="alternateBounds" />
          </mxGeometry>
        </mxCell>
        <mxCell id="eoc-LEapJYtR0BgHipC6-58" value="" style="line;strokeWidth=1;fillColor=none;align=left;verticalAlign=middle;spacingTop=-1;spacingLeft=3;spacingRight=3;rotatable=0;labelPosition=right;points=[];portConstraint=eastwest;strokeColor=#464F55;fontColor=#1A1A1A;rounded=1;labelBackgroundColor=none;" vertex="1" parent="eoc-LEapJYtR0BgHipC6-57">
          <mxGeometry y="23" width="125" height="28" as="geometry" />
        </mxCell>
        <mxCell id="eoc-LEapJYtR0BgHipC6-64" value="" style="ellipse;whiteSpace=wrap;html=1;aspect=fixed;fillColor=#FF3333;gradientColor=#FFFFFF;strokeColor=#464F55;" vertex="1" parent="WIyWlLk6GJQsqaUBKTNV-1">
          <mxGeometry x="99.88" y="406" width="59.51" height="59.51" as="geometry" />
        </mxCell>
        <mxCell id="eoc-LEapJYtR0BgHipC6-65" value="" style="ellipse;whiteSpace=wrap;html=1;aspect=fixed;fillColor=#007FFF;gradientColor=#FFFFFF;strokeColor=#464F55;" vertex="1" parent="WIyWlLk6GJQsqaUBKTNV-1">
          <mxGeometry x="372.63" y="406" width="59.51" height="59.51" as="geometry" />
        </mxCell>
        <mxCell id="eoc-LEapJYtR0BgHipC6-66" value="" style="whiteSpace=wrap;html=1;aspect=fixed;fillColor=#FF3333;gradientColor=#FFFFFF;strokeColor=#464F55;" vertex="1" parent="WIyWlLk6GJQsqaUBKTNV-1">
          <mxGeometry x="237.13" y="407" width="58.51" height="58.51" as="geometry" />
        </mxCell>
        <mxCell id="eoc-LEapJYtR0BgHipC6-67" value="" style="whiteSpace=wrap;html=1;aspect=fixed;fillColor=#007FFF;gradientColor=#FFFFFF;strokeColor=#464F55;" vertex="1" parent="WIyWlLk6GJQsqaUBKTNV-1">
          <mxGeometry x="508.12" y="407" width="58.51" height="58.51" as="geometry" />
        </mxCell>
      </root>
    </mxGraphModel>
  </diagram>
</mxfile>
